<svg width="188" height="42" viewBox="0 0 188 42" fill="none" xmlns="http://www.w3.org/2000/svg">
<path d="M166.728 0.0351562H20.9487C9.44699 0.0351562 0.123047 9.3591 0.123047 20.8608C0.123047 32.3624 9.44699 41.6864 20.9487 41.6864H166.728C178.23 41.6864 187.554 32.3624 187.554 20.8608C187.554 9.3591 178.23 0.0351562 166.728 0.0351562Z" fill="#02B14F"/>
<path d="M40.7627 17.7187C39.459 17.7187 38.6343 18.3851 38.6343 19.2889C38.6302 20.3052 39.7339 20.6926 40.5628 20.9051L41.5999 21.1758C42.9452 21.509 44.653 22.2462 44.653 24.158C44.653 25.9573 43.2201 27.2652 40.7252 27.2652C38.2303 27.2652 36.86 26.0781 36.7559 24.158H38.3595C38.4511 25.3117 39.4799 25.8615 40.7127 25.8615C42.0747 25.8615 43.066 25.1785 43.066 24.1414C43.066 23.2001 42.1914 22.8251 41.0543 22.5253L39.8006 22.1837C38.0971 21.7214 37.0391 20.8592 37.0391 19.3806C37.0391 17.5521 38.6719 16.3359 40.8002 16.3359C42.9286 16.3359 44.4572 17.5687 44.503 19.2681H42.9577C42.8453 18.2893 41.9789 17.7187 40.7627 17.7187Z" fill="white"/>
<path d="M47.977 27.0851H46.4276V16.4766H47.9562V20.4251H48.0561C48.431 19.5671 49.1766 19.0257 50.4136 19.0257C52.0505 19.0257 53.1376 20.0419 53.1376 22.0245V27.0851H51.5882V22.2119C51.5882 21.0457 50.9509 20.3668 49.8846 20.3668C48.8184 20.3668 47.977 21.0916 47.977 22.3619V27.0851Z" fill="white"/>
<path d="M54.8323 24.8343C54.8323 23.0266 56.3776 22.631 57.8812 22.456C59.3098 22.2894 59.8929 22.3019 59.8929 21.7355V21.6979C59.8929 20.7983 59.3806 20.2735 58.381 20.2735C57.3814 20.2735 56.7608 20.8191 56.5317 21.3814L55.0739 21.0482C55.5904 19.5987 56.9191 19.0156 58.356 19.0156C59.6181 19.0156 61.4423 19.4779 61.4423 21.7937V27.0751H59.9304V25.988H59.8679C59.5722 26.5837 58.8308 27.2501 57.5147 27.2501C56.0027 27.2501 54.8281 26.392 54.8281 24.826L54.8323 24.8343ZM59.8971 24.2137V23.1891C59.6722 23.4098 58.481 23.5473 57.9812 23.6139C57.0857 23.7347 56.3484 24.0304 56.3484 24.8551C56.3484 25.6215 56.9815 26.0172 57.8562 26.0172C59.1474 26.0172 59.8971 25.1592 59.8971 24.2137Z" fill="white"/>
<path d="M63.5039 19.1286H64.9992V20.3907H65.0825C65.374 19.5368 66.1696 19.0078 67.1026 19.0078C67.2983 19.0078 67.6065 19.0244 67.7607 19.0452V20.528C67.6357 20.4906 67.2733 20.4364 66.9526 20.4364C65.853 20.4364 65.0533 21.1862 65.0533 22.2274V27.0881H63.5039V19.1328V19.1286Z" fill="white"/>
<path d="M68.457 23.1552C68.457 20.7103 69.919 19.0234 72.1348 19.0234C73.9383 19.0234 75.6585 20.148 75.6585 23.0219V23.5717H70.0023C70.0439 25.1045 70.9352 25.9667 72.2597 25.9667C73.1386 25.9667 73.8133 25.5835 74.0924 24.8338L75.5585 25.0961C75.2045 26.3915 73.98 27.2454 72.2431 27.2454C69.8981 27.2454 68.457 25.6293 68.457 23.1594V23.1552ZM74.1382 22.4096C74.1341 21.1934 73.3469 20.3021 72.1432 20.3021C70.9394 20.3021 70.0648 21.2809 70.0023 22.4096H74.134H74.1382Z" fill="white"/>
<path d="M84.9497 20.3715H83.317V24.7491C83.317 25.6446 83.7668 25.8112 84.2708 25.8112C84.5207 25.8112 84.7123 25.7653 84.8164 25.7445L85.0955 27.0232C84.9122 27.0898 84.5832 27.1856 84.0917 27.1898C82.8713 27.2148 81.7676 26.5151 81.7717 25.0698V20.3715H80.6055V19.1303H81.7717V17.2227H83.3211V19.1303H84.9539V20.3715H84.9497Z" fill="white"/>
<path d="M88.3697 27.0851H86.8203V16.4766H88.3489V20.4251H88.4489C88.8238 19.5671 89.5693 19.0257 90.8063 19.0257C92.4432 19.0257 93.5303 20.0419 93.5303 22.0245V27.0851H91.9809V22.2119C91.9809 21.0457 91.3436 20.3668 90.2773 20.3668C89.2111 20.3668 88.3697 21.0916 88.3697 22.3619V27.0851Z" fill="white"/>
<path d="M95.4004 16.9796C95.4004 16.4715 95.8419 16.0508 96.3792 16.0508C96.9165 16.0508 97.358 16.4715 97.358 16.9796C97.358 17.4877 96.9123 17.9001 96.3792 17.9001C95.846 17.9001 95.4004 17.4836 95.4004 16.9796ZM95.5961 19.1289H97.1456V27.0842H95.5961V19.1289Z" fill="white"/>
<path d="M103.786 21.3184C103.602 20.7853 103.161 20.2521 102.195 20.2521C101.316 20.2521 100.649 20.6853 100.658 21.2976C100.654 21.8349 101.033 22.1306 101.907 22.3389L103.169 22.6304C104.631 22.9678 105.343 23.6633 105.343 24.7837C105.343 26.2249 104.011 27.2454 102.091 27.2454C100.304 27.2454 99.1332 26.454 98.875 25.042L100.37 24.8129C100.558 25.596 101.153 25.9959 102.078 25.9959C103.094 25.9959 103.752 25.5126 103.752 24.8962C103.752 24.4006 103.394 24.059 102.628 23.8883L101.282 23.5926C99.7913 23.2594 99.1083 22.5096 99.1083 21.3809C99.1083 19.973 100.383 19.0234 102.178 19.0234C103.973 19.0234 104.864 19.8314 105.189 21.0685L103.786 21.3184Z" fill="white"/>
<path d="M110.541 23.1552C110.541 20.7103 112.003 19.0234 114.219 19.0234C116.022 19.0234 117.743 20.148 117.743 23.0219V23.5717H112.086C112.128 25.1045 113.019 25.9667 114.344 25.9667C115.223 25.9667 115.897 25.5835 116.176 24.8338L117.643 25.0961C117.289 26.3915 116.064 27.2454 114.327 27.2454C111.982 27.2454 110.541 25.6293 110.541 23.1594V23.1552ZM116.222 22.4096C116.218 21.1934 115.431 20.3021 114.227 20.3021C113.023 20.3021 112.149 21.2809 112.086 22.4096H116.218H116.222Z" fill="white"/>
<path d="M123.249 20.3705H121.533V27.0847H119.979V20.3705H118.75V19.1293H119.979V18.2089C119.979 16.7177 121.083 15.9805 122.341 15.9805C122.965 15.9805 123.419 16.1096 123.636 16.1929L123.274 17.4466C123.128 17.4008 122.899 17.3258 122.578 17.3258C121.82 17.3258 121.533 17.709 121.533 18.4129V19.1293H123.249V20.3705Z" fill="white"/>
<path d="M128.625 20.3705H126.909V27.0847H125.356V20.3705H124.127V19.1293H125.356V18.2089C125.356 16.7177 126.459 15.9805 127.717 15.9805C128.342 15.9805 128.796 16.1096 129.013 16.1929L128.65 17.4466C128.504 17.4008 128.275 17.3258 127.955 17.3258C127.197 17.3258 126.909 17.709 126.909 18.4129V19.1293H128.625V20.3705Z" fill="white"/>
<path d="M129.547 23.1427C129.547 20.6686 131.013 19.0234 133.254 19.0234C135.495 19.0234 136.961 20.6645 136.961 23.1427C136.961 25.6209 135.495 27.2454 133.254 27.2454C131.013 27.2454 129.547 25.6043 129.547 23.1427ZM135.399 23.1385C135.399 21.6141 134.716 20.3229 133.258 20.3229C131.8 20.3229 131.109 21.6183 131.109 23.1385C131.109 24.6588 131.792 25.9458 133.258 25.9458C134.724 25.9458 135.399 24.6671 135.399 23.1385Z" fill="white"/>
<path d="M138.682 19.1286H140.177V20.3907H140.26C140.552 19.5368 141.347 19.0078 142.28 19.0078C142.476 19.0078 142.784 19.0244 142.938 19.0452V20.528C142.813 20.4906 142.451 20.4364 142.13 20.4364C141.031 20.4364 140.231 21.1862 140.231 22.2274V27.0881H138.682V19.1328V19.1286Z" fill="white"/>
<path d="M148.459 20.3715H146.827V24.7491C146.827 25.6446 147.277 25.8112 147.781 25.8112C148.03 25.8112 148.222 25.7653 148.326 25.7445L148.605 27.0232C148.422 27.0898 148.093 27.1856 147.601 27.1898C146.381 27.2148 145.277 26.5151 145.281 25.0698V20.3715H144.115V19.1303H145.281V17.2227H146.831V19.1303H148.464V20.3715H148.459Z" fill="white"/>
</svg>
