<svg width="189" height="43" viewBox="0 0 189 43" fill="none" xmlns="http://www.w3.org/2000/svg">
<path d="M167.462 0.761719H21.6283C10.1223 0.761719 0.794922 10.0891 0.794922 21.5951C0.794922 33.101 10.1223 42.4284 21.6283 42.4284H167.462C178.968 42.4284 188.295 33.101 188.295 21.5951C188.295 10.0891 178.968 0.761719 167.462 0.761719Z" fill="#02B14F"/>
<path d="M41.4536 18.4459C40.1495 18.4459 39.3244 19.1125 39.3244 20.0167C39.3203 21.0334 40.4244 21.4208 41.2536 21.6333L42.2911 21.9042C43.637 22.2375 45.3453 22.975 45.3453 24.8875C45.3453 26.6875 43.9119 27.9958 41.4161 27.9958C38.9203 27.9958 37.5495 26.8083 37.4453 24.8875H39.0495C39.1411 26.0417 40.1703 26.5917 41.4036 26.5917C42.7661 26.5917 43.7578 25.9083 43.7578 24.8708C43.7578 23.9292 42.8828 23.5542 41.7453 23.2542L40.4911 22.9125C38.787 22.45 37.7286 21.5875 37.7286 20.1084C37.7286 18.2792 39.362 17.0625 41.4911 17.0625C43.6203 17.0625 45.1495 18.2958 45.1953 19.9958H43.6494C43.5369 19.0167 42.6703 18.4459 41.4536 18.4459Z" fill="white"/>
<path d="M48.6711 27.8195H47.1211V17.207H48.6502V21.157H48.7503C49.1253 20.2987 49.8711 19.757 51.1086 19.757C52.7461 19.757 53.8336 20.7737 53.8336 22.7571V27.8195H52.2836V22.9445C52.2836 21.7779 51.6461 21.0987 50.5794 21.0987C49.5127 21.0987 48.6711 21.8236 48.6711 23.0945V27.8195Z" fill="white"/>
<path d="M55.5256 25.5708C55.5256 23.7625 57.0715 23.3666 58.5756 23.1916C60.0048 23.0249 60.5881 23.0374 60.5881 22.4707V22.4333C60.5881 21.5333 60.0756 21.0082 59.0756 21.0082C58.0756 21.0082 57.4548 21.5541 57.2256 22.1166L55.7673 21.7833C56.284 20.3333 57.6131 19.75 59.0506 19.75C60.3131 19.75 62.1381 20.2125 62.1381 22.5291V27.8124H60.6257V26.725H60.5631C60.2673 27.3208 59.5256 27.9874 58.209 27.9874C56.6965 27.9874 55.5215 27.1291 55.5215 25.5625L55.5256 25.5708ZM60.5923 24.95V23.9249C60.3673 24.1457 59.1756 24.2832 58.6756 24.3499C57.7798 24.4707 57.0423 24.7666 57.0423 25.5916C57.0423 26.3582 57.6756 26.7541 58.5506 26.7541C59.8423 26.7541 60.5923 25.8958 60.5923 24.95Z" fill="white"/>
<path d="M64.1992 19.859H65.695V21.1215H65.7784C66.0701 20.2674 66.8659 19.7383 67.7992 19.7383C67.9951 19.7383 68.3034 19.7549 68.4575 19.7757V21.2591C68.3325 21.2216 67.9701 21.1674 67.6492 21.1674C66.5492 21.1674 65.7492 21.9174 65.7492 22.9591V27.8216H64.1992V19.8632V19.859Z" fill="white"/>
<path d="M69.1543 23.8912C69.1543 21.4454 70.6168 19.7578 72.8334 19.7578C74.6376 19.7578 76.3584 20.8829 76.3584 23.7579V24.3079H70.7001C70.7418 25.8412 71.6335 26.7037 72.9585 26.7037C73.8376 26.7037 74.5126 26.3204 74.7918 25.5704L76.2584 25.8328C75.9043 27.1287 74.6793 27.9828 72.9418 27.9828C70.5959 27.9828 69.1543 26.3662 69.1543 23.8954V23.8912ZM74.8376 23.1454C74.8335 21.9287 74.046 21.037 72.8418 21.037C71.6376 21.037 70.7626 22.0162 70.7001 23.1454H74.8335H74.8376Z" fill="white"/>
<path d="M85.6584 21.1031H84.025V25.4822C84.025 26.3781 84.475 26.5447 84.9792 26.5447C85.2292 26.5447 85.4208 26.4989 85.525 26.4781L85.8042 27.7573C85.6208 27.824 85.2917 27.9198 84.8 27.9239C83.5792 27.9489 82.475 27.2489 82.4792 25.8031V21.1031H81.3125V19.8614H82.4792V17.9531H84.0292V19.8614H85.6625V21.1031H85.6584Z" fill="white"/>
<path d="M89.0793 27.8195H87.5293V17.207H89.0585V21.157H89.1585C89.5335 20.2987 90.2793 19.757 91.5168 19.757C93.1543 19.757 94.2418 20.7737 94.2418 22.7571V27.8195H92.6918V22.9445C92.6918 21.7779 92.0543 21.0987 90.9877 21.0987C89.921 21.0987 89.0793 21.8236 89.0793 23.0945V27.8195Z" fill="white"/>
<path d="M96.1074 17.7104C96.1074 17.2021 96.5491 16.7812 97.0866 16.7812C97.6241 16.7812 98.0658 17.2021 98.0658 17.7104C98.0658 18.2187 97.6199 18.6312 97.0866 18.6312C96.5532 18.6312 96.1074 18.2146 96.1074 17.7104ZM96.3032 19.8604H97.8533V27.8187H96.3032V19.8604Z" fill="white"/>
<path d="M104.496 22.0536C104.313 21.5203 103.871 20.9871 102.905 20.9871C102.026 20.9871 101.359 21.4204 101.367 22.0329C101.363 22.5704 101.742 22.8662 102.617 23.0746L103.88 23.3662C105.342 23.7037 106.055 24.3995 106.055 25.5203C106.055 26.962 104.721 27.9828 102.801 27.9828C101.013 27.9828 99.8423 27.1912 99.584 25.7787L101.08 25.5495C101.267 26.3329 101.863 26.7328 102.788 26.7328C103.805 26.7328 104.463 26.2495 104.463 25.6329C104.463 25.137 104.105 24.7954 103.338 24.6246L101.992 24.3287C100.501 23.9954 99.8173 23.2454 99.8173 22.1162C99.8173 20.7079 101.092 19.7578 102.888 19.7578C104.684 19.7578 105.576 20.5662 105.901 21.8037L104.496 22.0536Z" fill="white"/>
<path d="M111.254 23.8912C111.254 21.4454 112.716 19.7578 114.933 19.7578C116.737 19.7578 118.458 20.8829 118.458 23.7579V24.3079H112.8C112.841 25.8412 113.733 26.7037 115.058 26.7037C115.937 26.7037 116.612 26.3204 116.891 25.5704L118.358 25.8328C118.004 27.1287 116.779 27.9828 115.041 27.9828C112.696 27.9828 111.254 26.3662 111.254 23.8954V23.8912ZM116.937 23.1454C116.933 21.9287 116.146 21.037 114.941 21.037C113.737 21.037 112.862 22.0162 112.8 23.1454H116.933H116.937Z" fill="white"/>
<path d="M123.967 21.1026H122.25V27.8192H120.696V21.1026H119.467V19.8609H120.696V18.94C120.696 17.4484 121.8 16.7109 123.058 16.7109C123.683 16.7109 124.138 16.8401 124.354 16.9234L123.992 18.1776C123.846 18.1318 123.617 18.0568 123.296 18.0568C122.538 18.0568 122.25 18.44 122.25 19.1442V19.8609H123.967V21.1026Z" fill="white"/>
<path d="M129.346 21.1026H127.629V27.8192H126.075V21.1026H124.846V19.8609H126.075V18.94C126.075 17.4484 127.179 16.7109 128.437 16.7109C129.062 16.7109 129.517 16.8401 129.733 16.9234L129.371 18.1776C129.225 18.1318 128.996 18.0568 128.675 18.0568C127.917 18.0568 127.629 18.44 127.629 19.1442V19.8609H129.346V21.1026Z" fill="white"/>
<path d="M130.266 23.8787C130.266 21.4037 131.732 19.7578 133.974 19.7578C136.216 19.7578 137.682 21.3995 137.682 23.8787C137.682 26.3579 136.216 27.9828 133.974 27.9828C131.732 27.9828 130.266 26.3412 130.266 23.8787ZM136.12 23.8745C136.12 22.3495 135.436 21.0579 133.978 21.0579C132.52 21.0579 131.828 22.3537 131.828 23.8745C131.828 25.3954 132.511 26.6829 133.978 26.6829C135.445 26.6829 136.12 25.4037 136.12 23.8745Z" fill="white"/>
<path d="M139.408 19.859H140.904V21.1215H140.987C141.279 20.2674 142.075 19.7383 143.008 19.7383C143.204 19.7383 143.512 19.7549 143.667 19.7757V21.2591C143.542 21.2216 143.179 21.1674 142.858 21.1674C141.758 21.1674 140.958 21.9174 140.958 22.9591V27.8216H139.408V19.8632V19.859Z" fill="white"/>
<path d="M149.192 21.1031H147.558V25.4822C147.558 26.3781 148.008 26.5447 148.512 26.5447C148.762 26.5447 148.954 26.4989 149.058 26.4781L149.337 27.7573C149.154 27.824 148.825 27.9198 148.333 27.9239C147.112 27.9489 146.008 27.2489 146.012 25.8031V21.1031H144.846V19.8614H146.012V17.9531H147.562V19.8614H149.196V21.1031H149.192Z" fill="white"/>
</svg>
