<svg width="225" height="59" viewBox="0 0 225 59" fill="none" xmlns="http://www.w3.org/2000/svg">
<path d="M195.881 0.332031H29.7183C13.6997 0.332031 0.714111 13.3176 0.714111 29.3361C0.714111 45.3547 13.6997 58.3404 29.7183 58.3404H195.881C211.899 58.3404 224.885 45.3547 224.885 29.3361C224.885 13.3176 211.899 0.332031 195.881 0.332031Z" fill="#A0D92A"/>
<path d="M52.3646 25.8727C49.6063 25.8727 47.5813 23.8102 47.5813 20.4227C47.5813 17.0352 49.6063 14.9727 52.3646 14.9727C55.123 14.9727 57.1438 17.031 57.1438 20.4227C57.1438 23.8144 55.1105 25.8727 52.3646 25.8727ZM52.3646 16.431C50.5355 16.431 49.1729 17.8352 49.1729 20.4227C49.1729 23.0102 50.5355 24.4144 52.3646 24.4144C54.1938 24.4144 55.5563 23.0102 55.5563 20.4227C55.5563 17.8352 54.1896 16.431 52.3646 16.431Z" fill="#005339"/>
<path d="M59.0032 17.7653H60.499V19.0278H60.5823C60.874 18.1736 61.6698 17.6445 62.6032 17.6445C62.799 17.6445 63.1073 17.6611 63.2615 17.682V19.1653C63.1365 19.1278 62.774 19.0737 62.4531 19.0737C61.3531 19.0737 60.5532 19.8237 60.5532 20.8654V25.7278H59.0032V17.7694V17.7653Z" fill="#005339"/>
<path d="M73.027 19.9599C72.8436 19.4266 72.402 18.8933 71.4353 18.8933C70.5562 18.8933 69.8895 19.3266 69.8978 19.9391C69.8937 20.4766 70.2728 20.7725 71.1478 20.9808L72.4103 21.2725C73.8728 21.61 74.5853 22.3058 74.5853 23.4266C74.5853 24.8683 73.252 25.8891 71.3312 25.8891C69.5437 25.8891 68.3728 25.0975 68.1145 23.685L69.6103 23.4558C69.7978 24.2391 70.3936 24.6391 71.3186 24.6391C72.3353 24.6391 72.9937 24.1558 72.9937 23.5391C72.9937 23.0433 72.6353 22.7016 71.8687 22.5308L70.5228 22.235C69.0312 21.9017 68.3478 21.1516 68.3478 20.0225C68.3478 18.6141 69.6228 17.6641 71.4186 17.6641C73.2145 17.6641 74.1061 18.4725 74.4311 19.71L73.027 19.9599Z" fill="#005339"/>
<path d="M77.8325 25.7258H76.2825V15.1133H77.8117V19.0633H77.9117C78.2867 18.2049 79.0324 17.6632 80.2699 17.6632C81.9074 17.6632 82.995 18.68 82.995 20.6633V25.7258H81.445V20.8508C81.445 19.6841 80.8075 19.005 79.7408 19.005C78.6742 19.005 77.8325 19.7299 77.8325 21.0007V25.7258Z" fill="#005339"/>
<path d="M84.6909 23.4732C84.6909 21.6648 86.2367 21.2689 87.7409 21.0939C89.1701 20.9272 89.7534 20.9398 89.7534 20.3731V20.3357C89.7534 19.4357 89.2409 18.9106 88.2409 18.9106C87.2409 18.9106 86.6201 19.4565 86.3909 20.019L84.9326 19.6856C85.4493 18.2356 86.7784 17.6523 88.2159 17.6523C89.4784 17.6523 91.3034 18.1148 91.3034 20.4315V25.7148H89.7909V24.6273H89.7284C89.4326 25.2232 88.6909 25.8898 87.3742 25.8898C85.8617 25.8898 84.6868 25.0315 84.6868 23.4648L84.6909 23.4732ZM89.7576 22.8523V21.8273C89.5326 22.0481 88.3409 22.1856 87.8409 22.2523C86.9451 22.3731 86.2076 22.6689 86.2076 23.4939C86.2076 24.2606 86.8409 24.6564 87.7159 24.6564C89.0076 24.6564 89.7576 23.7982 89.7576 22.8523Z" fill="#005339"/>
<path d="M93.3606 17.7653H94.8564V19.0278H94.9398C95.2314 18.1736 96.0273 17.6445 96.9606 17.6445C97.1564 17.6445 97.4648 17.6611 97.6189 17.682V19.1653C97.4939 19.1278 97.1314 19.0737 96.8106 19.0737C95.7106 19.0737 94.9106 19.8237 94.9106 20.8654V25.7278H93.3606V17.7694V17.7653Z" fill="#005339"/>
<path d="M98.3196 21.7975C98.3196 19.3516 99.7821 17.6641 101.999 17.6641C103.803 17.6641 105.524 18.7891 105.524 21.6641V22.2141H99.8654C99.9071 23.7475 100.799 24.61 102.124 24.61C103.003 24.61 103.678 24.2266 103.957 23.4766L105.424 23.7391C105.07 25.0349 103.845 25.8891 102.107 25.8891C99.7612 25.8891 98.3196 24.2725 98.3196 21.8016V21.7975ZM104.003 21.0516C103.999 19.8349 103.211 18.9433 102.007 18.9433C100.803 18.9433 99.9279 19.9224 99.8654 21.0516H103.999H104.003Z" fill="#005339"/>
<path d="M110.906 15.6167C110.906 15.1083 111.347 14.6875 111.885 14.6875C112.422 14.6875 112.864 15.1083 112.864 15.6167C112.864 16.125 112.418 16.5375 111.885 16.5375C111.351 16.5375 110.906 16.1208 110.906 15.6167ZM111.101 17.7666H112.651V25.725H111.101V17.7666Z" fill="#005339"/>
<path d="M118.449 19.0094H116.815V23.3885C116.815 24.2843 117.265 24.451 117.769 24.451C118.019 24.451 118.211 24.4052 118.315 24.3844L118.594 25.6636C118.411 25.7302 118.082 25.826 117.59 25.8302C116.369 25.8552 115.265 25.1551 115.269 23.7093V19.0094H114.103V17.7676H115.269V15.8594H116.819V17.7676H118.453V19.0094H118.449Z" fill="#005339"/>
<path d="M127.806 19.0089H126.089V25.7255H124.535V19.0089H123.306V17.7671H124.535V16.8463C124.535 15.3546 125.639 14.6172 126.898 14.6172C127.523 14.6172 127.977 14.7464 128.193 14.8297L127.831 16.0839C127.685 16.038 127.456 15.963 127.135 15.963C126.377 15.963 126.089 16.3463 126.089 17.0505V17.7671H127.806V19.0089Z" fill="#005339"/>
<path d="M128.728 21.781C128.728 19.306 130.194 17.6602 132.436 17.6602C134.678 17.6602 136.144 19.3019 136.144 21.781C136.144 24.2602 134.678 25.8853 132.436 25.8853C130.194 25.8853 128.728 24.2435 128.728 21.781ZM134.582 21.7769C134.582 20.2519 133.899 18.9602 132.44 18.9602C130.982 18.9602 130.29 20.256 130.29 21.7769C130.29 23.2977 130.974 24.5852 132.44 24.5852C133.907 24.5852 134.582 23.306 134.582 21.7769Z" fill="#005339"/>
<path d="M137.865 17.7653H139.36V19.0278H139.444C139.735 18.1736 140.531 17.6445 141.464 17.6445C141.66 17.6445 141.969 17.6611 142.123 17.682V19.1653C141.998 19.1278 141.635 19.0737 141.314 19.0737C140.214 19.0737 139.414 19.8237 139.414 20.8654V25.7278H137.865V17.7694V17.7653Z" fill="#005339"/>
<path d="M142.976 17.7656H144.576L146.134 23.6115H146.213L147.78 17.7656H149.38L150.934 23.5865H151.013L152.563 17.7656H154.163L151.826 25.724H150.247L148.63 19.9781H148.509L146.893 25.724H145.317L142.976 17.7656Z" fill="#005339"/>
<path d="M155.248 23.4732C155.248 21.6648 156.793 21.2689 158.298 21.0939C159.727 20.9272 160.31 20.9398 160.31 20.3731V20.3357C160.31 19.4357 159.798 18.9106 158.798 18.9106C157.798 18.9106 157.177 19.4565 156.948 20.019L155.489 19.6856C156.006 18.2356 157.335 17.6523 158.773 17.6523C160.035 17.6523 161.86 18.1148 161.86 20.4315V25.7148H160.348V24.6273H160.285C159.989 25.2232 159.248 25.8898 157.931 25.8898C156.418 25.8898 155.243 25.0315 155.243 23.4648L155.248 23.4732ZM160.314 22.8523V21.8273C160.089 22.0481 158.898 22.1856 158.398 22.2523C157.502 22.3731 156.764 22.6689 156.764 23.4939C156.764 24.2606 157.398 24.6564 158.273 24.6564C159.564 24.6564 160.314 23.7982 160.314 22.8523Z" fill="#005339"/>
<path d="M163.923 17.7653H165.419V19.0278H165.502C165.794 18.1736 166.59 17.6445 167.523 17.6445C167.719 17.6445 168.027 17.6611 168.181 17.682V19.1653C168.056 19.1278 167.694 19.0737 167.373 19.0737C166.273 19.0737 165.473 19.8237 165.473 20.8654V25.7278H163.923V17.7694V17.7653Z" fill="#005339"/>
<path d="M168.89 21.7591C168.89 19.1799 170.307 17.6591 172.227 17.6591C173.711 17.6591 174.24 18.5591 174.519 19.0549H174.611V15.1133H176.161V25.7258H174.648V24.4883H174.519C174.24 24.9966 173.669 25.8842 172.219 25.8842C170.286 25.8842 168.894 24.3383 168.894 21.7633L168.89 21.7591ZM174.636 21.7424C174.636 20.0799 173.911 18.9758 172.557 18.9758C171.202 18.9758 170.452 20.1632 170.452 21.7424C170.452 23.3216 171.173 24.5549 172.557 24.5549C173.94 24.5549 174.636 23.4132 174.636 21.7424Z" fill="#005339"/>
<path d="M57.4805 32.7266H58.9013C57.8805 34.0932 57.0763 36.8723 57.0763 39.3348C57.0763 41.7973 57.8805 44.5766 58.9013 45.9474H57.4805C56.1638 44.1016 55.468 41.9348 55.468 39.3348C55.468 36.7348 56.1638 34.5724 57.4805 32.7266Z" fill="#005339"/>
<path d="M64.2435 37.0211H62.6102V41.4003C62.6102 42.2961 63.0602 42.4627 63.5643 42.4627C63.8143 42.4627 64.006 42.4169 64.1102 42.3961L64.3893 43.6753C64.206 43.7419 63.8769 43.8377 63.3852 43.8419C62.1644 43.8669 61.0602 43.1669 61.0643 41.721V37.0211H59.8977V35.7795H61.0643V33.8711H62.6143V35.7795H64.2477V37.0211H64.2435Z" fill="#005339"/>
<path d="M67.6684 43.7375H66.1184V33.125H67.6476V37.075H67.7476C68.1226 36.2167 68.8684 35.675 70.1059 35.675C71.7434 35.675 72.8309 36.6917 72.8309 38.675V43.7375H71.2809V38.8625C71.2809 37.6958 70.6434 37.0167 69.5768 37.0167C68.5101 37.0167 67.6684 37.7416 67.6684 39.0125V43.7375Z" fill="#005339"/>
<path d="M74.523 41.4888C74.523 39.6805 76.0688 39.2846 77.5729 39.1096C79.0021 38.943 79.5855 38.9554 79.5855 38.3887V38.3513C79.5855 37.4513 79.073 36.9263 78.073 36.9263C77.073 36.9263 76.4521 37.4721 76.223 38.0346L74.7646 37.7013C75.2813 36.2513 76.6105 35.668 78.048 35.668C79.3105 35.668 81.1355 36.1304 81.1355 38.4471V43.7304H79.623V42.643H79.5605C79.2646 43.2388 78.5229 43.9055 77.2063 43.9055C75.6938 43.9055 74.5188 43.0471 74.5188 41.4804L74.523 41.4888ZM79.5896 40.868V39.843C79.3646 40.0638 78.1729 40.2012 77.6729 40.2679C76.7771 40.3887 76.0396 40.6846 76.0396 41.5096C76.0396 42.2763 76.673 42.6721 77.548 42.6721C78.8396 42.6721 79.5896 41.8138 79.5896 40.868Z" fill="#005339"/>
<path d="M86.9115 37.0211H85.2782V41.4003C85.2782 42.2961 85.7282 42.4627 86.2324 42.4627C86.4824 42.4627 86.674 42.4169 86.7782 42.3961L87.0574 43.6753C86.874 43.7419 86.5448 43.8377 86.0532 43.8419C84.8323 43.8669 83.7282 43.1669 83.7324 41.721V37.0211H82.5657V35.7795H83.7324V33.8711H85.2823V35.7795H86.9157V37.0211H86.9115Z" fill="#005339"/>
<path d="M91.8645 35.7773H93.4645L95.0228 41.6231H95.102L96.6687 35.7773H98.2687L99.8228 41.5982H99.902L101.452 35.7773H103.052L100.714 43.7356H99.1353L97.5186 37.9898H97.3978L95.7812 43.7356H94.2062L91.8645 35.7773Z" fill="#005339"/>
<path d="M103.909 39.7927C103.909 37.3177 105.376 35.6719 107.618 35.6719C109.859 35.6719 111.326 37.3135 111.326 39.7927C111.326 42.2718 109.859 43.8969 107.618 43.8969C105.376 43.8969 103.909 42.2552 103.909 39.7927ZM109.764 39.7885C109.764 38.2635 109.08 36.9718 107.622 36.9718C106.164 36.9718 105.472 38.2677 105.472 39.7885C105.472 41.3093 106.155 42.5968 107.622 42.5968C109.089 42.5968 109.764 41.3177 109.764 39.7885Z" fill="#005339"/>
<path d="M113.052 35.7732H114.548V37.0356H114.631C114.923 36.1814 115.719 35.6523 116.652 35.6523C116.848 35.6523 117.156 35.6689 117.31 35.6898V37.1731C117.185 37.1356 116.823 37.0815 116.502 37.0815C115.402 37.0815 114.602 37.8315 114.602 38.8732V43.7356H113.052V35.7774V35.7732Z" fill="#005339"/>
<path d="M118.652 33.125H120.202V39.1458H120.335L123.506 35.7792H125.36L122.135 39.1959L125.577 43.7417H123.677L120.972 40.1459L120.202 40.9166V43.7417H118.652V33.1292V33.125Z" fill="#005339"/>
<path d="M131.326 37.9677C131.143 37.4344 130.701 36.901 129.734 36.901C128.855 36.901 128.188 37.3344 128.197 37.9469C128.193 38.4844 128.572 38.7802 129.447 38.9885L130.709 39.2802C132.172 39.6177 132.884 40.3135 132.884 41.4343C132.884 42.876 131.551 43.8969 129.63 43.8969C127.843 43.8969 126.672 43.1052 126.413 41.6927L127.909 41.4635C128.097 42.2468 128.693 42.6469 129.618 42.6469C130.634 42.6469 131.293 42.1635 131.293 41.5468C131.293 41.051 130.934 40.7093 130.168 40.5385L128.822 40.2427C127.33 39.9094 126.647 39.1593 126.647 38.0302C126.647 36.6218 127.922 35.6719 129.718 35.6719C131.513 35.6719 132.405 36.4802 132.73 37.7177L131.326 37.9677Z" fill="#005339"/>
<path d="M142.161 37.0211H140.528V41.4003C140.528 42.2961 140.978 42.4627 141.482 42.4627C141.732 42.4627 141.924 42.4169 142.028 42.3961L142.307 43.6753C142.124 43.7419 141.795 43.8377 141.303 43.8419C140.082 43.8669 138.978 43.1669 138.982 41.721V37.0211H137.816V35.7795H138.982V33.8711H140.532V35.7795H142.166V37.0211H142.161Z" fill="#005339"/>
<path d="M143.427 39.7927C143.427 37.3177 144.894 35.6719 147.135 35.6719C149.377 35.6719 150.844 37.3135 150.844 39.7927C150.844 42.2718 149.377 43.8969 147.135 43.8969C144.894 43.8969 143.427 42.2552 143.427 39.7927ZM149.281 39.7885C149.281 38.2635 148.598 36.9718 147.139 36.9718C145.681 36.9718 144.989 38.2677 144.989 39.7885C144.989 41.3093 145.673 42.5968 147.139 42.5968C148.606 42.5968 149.281 41.3177 149.281 39.7885Z" fill="#005339"/>
<path d="M152.21 39.7927C152.21 37.3177 153.677 35.6719 155.919 35.6719C158.16 35.6719 159.627 37.3135 159.627 39.7927C159.627 42.2718 158.16 43.8969 155.919 43.8969C153.677 43.8969 152.21 42.2552 152.21 39.7927ZM158.064 39.7885C158.064 38.2635 157.381 36.9718 155.923 36.9718C154.464 36.9718 153.773 38.2677 153.773 39.7885C153.773 41.3093 154.456 42.5968 155.923 42.5968C157.389 42.5968 158.064 41.3177 158.064 39.7885Z" fill="#005339"/>
<path d="M161.413 42.7958C161.413 42.2292 161.88 41.7667 162.451 41.7667C163.022 41.7667 163.488 42.2333 163.488 42.7958C163.488 43.3583 163.017 43.8333 162.451 43.8333C161.884 43.8333 161.413 43.3708 161.413 42.7958ZM163.172 40.6833H161.738L161.605 33.125H163.309L163.176 40.6833H163.172Z" fill="#005339"/>
<path d="M166.602 45.9435H165.181C166.202 44.5768 167.006 41.7976 167.006 39.3351C167.006 36.8726 166.202 34.0893 165.181 32.7227H166.602C167.918 34.5685 168.614 36.7351 168.614 39.3351C168.614 41.9351 167.918 44.0976 166.602 45.9435Z" fill="#005339"/>
</svg>
