<svg width="140" height="11" viewBox="0 0 140 11" fill="none" xmlns="http://www.w3.org/2000/svg">
<g opacity="0.57">
<path d="M0.600708 10.0108C1.03539 10.2317 1.7819 10.2526 2.49061 10.2901C1.94727 10.0776 1.36612 9.98585 0.600708 10.0108Z" fill="#43C554"/>
<path d="M2.50337 10.2939H2.51296C2.50338 10.2939 2.4938 10.2939 2.48901 10.2939C2.4938 10.2939 2.49858 10.2939 2.50337 10.2981V10.2939Z" fill="#43C554"/>
<path d="M140 0.255859C139.825 0.260026 139.622 0.264205 139.419 0.268372C139.613 0.276705 139.811 0.276693 140 0.255859Z" fill="#43C554"/>
<path d="M33.5481 10.8599L33.6471 10.497C35.179 10.4888 34.0946 10.9134 35.5103 10.8227C36.0655 10.3074 37.8643 10.8722 38.3505 10.6001C38.3376 10.6413 39.0347 10.6578 38.9874 10.8186C39.1983 10.5383 39.7017 10.7527 40.1363 10.6826C40.2956 10.6043 40.0202 10.6001 39.8997 10.5135L40.9023 10.4146C41.2939 10.5053 41.3886 10.6702 40.9669 10.699C43.5833 10.798 56.153 11.0536 58.9716 10.9134C58.6102 10.7032 57.7366 10.8475 57.4096 10.5135C58.154 10.328 58.5069 10.5795 58.834 10.3816C59.1223 10.8763 60.4735 10.497 61.0372 11L61.2524 10.7197L61.6225 10.8888C64.9015 10.596 62.3712 10.7444 65.2759 10.8104C66.9585 10.765 67.7589 10.3775 68.6927 10.5218C68.555 10.5218 68.1806 10.3487 68.6195 10.2745C68.6927 10.5218 69.7814 10.0971 69.9922 10.3445C70.4183 10.3115 71.7996 10.3445 71.3349 10.0064C71.5715 10.1754 72.8023 10.2414 72.0707 10.3857C72.4882 10.3939 72.8884 10.4435 73.1896 10.3693L72.656 10.2745C74.0631 10.225 74.8291 10.4846 75.7414 10.1795L75.2207 10.0477C76.0598 10.0271 76.7655 9.99818 77.0926 10.3321L76.2319 10.4352C77.6262 10.427 78.4653 10.4022 79.6272 10.2249L79.2141 10.2167C80.6944 9.88272 88.436 9.60236 89.7958 9.18594L89.1675 8.93037L90.338 8.71184C90.2003 8.71184 89.7743 9.54873 89.6581 9.46628C92.1712 9.44154 105.24 9.23131 107.56 9.40447C108.498 9.54465 107.727 9.81268 107.719 9.85391C108.859 9.75496 108.209 9.58175 109.178 9.60236C109.44 9.64772 109.122 9.80442 108.975 9.84153C109.401 9.81267 109.793 9.89919 109.827 9.77962C109.298 9.6848 109.522 9.36732 109.298 9.15705L110.546 9.18182L110.49 9.38384C110.77 9.38796 111.196 8.83133 112.418 8.93853C114.484 9.02511 116.726 8.95095 118.804 8.9963C118.774 9.11587 118.335 9.19004 117.9 9.26013C118.18 9.26425 118.602 9.23545 118.86 9.32203C118.356 9.10764 119.729 9.1777 119.338 9.087C120.857 8.59224 122.827 9.04167 124.17 8.70359C124.286 8.25831 127.04 1.072 127.04 0.544257C127.458 0.552503 127.871 0.560709 128 0.606061C127.892 0.482373 127.075 0.424644 126.636 0.494734L126.563 0.779294C125.56 0.878245 126.326 0.610209 125.349 0.630823C125.298 0.399938 126.197 0.350467 126.989 0.325729C126.274 0.300991 125.564 0.131906 125.272 0.383406C124.6 0.288578 125.345 0.0989508 124.54 0C123.964 0.0700901 123.21 0.296909 122.548 0.160851L122.561 0.119582C120.956 -0.119549 120.104 0.474171 118.632 0.239163L118.791 0.160851C118.27 0.028917 117.25 0.206212 116.312 0.0660316C116.579 0.111384 116.812 0.280361 116.248 0.309221C115.172 0.164918 114.436 0.309249 113.649 0.131963L112.896 0.358745C109.147 0.317515 94.3443 0.651494 90.579 0.688601L90.7253 0.651458C84.9891 0.771024 73.2111 0.758667 67.2855 1.07613C66.3689 0.853495 65.1038 0.907069 64.1485 0.845225C64.6821 0.93593 64.497 1.09676 64.0839 1.08851C61.1706 1.06378 63.886 1.24101 60.9383 1.33996C57.543 1.55023 44.5515 1.32347 41.5392 1.13381C39.9212 1.46365 37.8986 1.21625 36.315 1.42652L36.4743 1.34821C34.7702 1.4719 25.1309 1.1751 23.1514 1.29466L23.4182 1.33996C21.6926 1.54611 21.9293 1.18745 20.5652 1.07613C20.7459 1.44308 19.2656 1.65746 18.7019 1.6822L18.7234 1.59976C17.8714 1.6616 15.9478 1.98311 14.5406 2.03671L14.5966 1.83469C13.4261 2.05321 11.2229 1.96255 10.3794 1.98729C8.45587 1.90483 5.48233 1.55432 2.90899 1.82644L1.24364 1.25339L0.998351 1.31107C0.998351 1.31107 -1.67396 8.26244 1.7256 9.74258L1.66966 9.9446L2.34096 9.91984C3.14567 10.0188 3.52004 9.78375 3.4641 9.98577L2.35816 9.96111C3.16717 10.0188 2.60346 10.126 2.29363 10.2414C2.63359 10.2621 2.96063 10.2827 3.23174 10.3445C3.39096 10.2662 3.11554 10.262 2.98645 10.2167C3.42107 10.1466 4.02785 9.95697 4.56145 10.0477C5.39198 10.0642 4.61309 10.3733 5.58132 10.3939C10.6893 10.5465 15.638 10.7774 20.8019 10.7279C20.9181 10.8104 20.7804 10.8104 20.6297 10.8475C22.1832 10.7609 23.5689 10.7897 24.9846 10.699C25.3762 10.7897 25.4838 10.9135 25.6 10.996C25.3676 10.8269 33.419 10.8063 33.5481 10.8516V10.8599Z" fill="#43C554"/>
</g>
</svg>
