<svg width="450" height="355" viewBox="0 0 450 355" fill="none" xmlns="http://www.w3.org/2000/svg">
<path d="M306.45 30.2914C306.4 30.5455 306.587 31.133 306.617 31.4247C306.683 32.1122 306.658 33.1455 306.546 33.8247C306.233 35.6914 305.529 37.383 304.396 38.8872C304.05 39.3497 302.546 41.1122 302.096 41.2705C301.267 41.5622 300.3 40.9039 300.387 40.008C300.442 39.4539 301.25 38.533 301.596 38.0205C302.371 36.8664 302.829 36.0372 302.862 34.5747C302.921 32.1247 301.146 29.733 299.004 28.6664L291.3 44.3247C287.846 49.1789 280.242 47.0205 277.746 42.2664C276.058 39.0455 276.887 35.108 280.621 33.9789C284.217 32.8914 288.067 34.7622 290.367 37.508C290.504 37.6705 290.646 37.9455 290.783 38.0914C290.829 38.1414 290.804 38.1872 290.892 38.1164C291.775 36.3705 292.642 34.6122 293.504 32.8539C295.946 27.8622 298.3 22.8164 300.804 17.858C301.704 16.8664 303.533 17.5914 303.508 18.9372C303.492 19.8205 303.208 20.6372 303.258 21.6122C303.392 24.2205 305.054 26.283 305.921 28.6372C306.121 29.1789 306.246 29.7497 306.454 30.2872L306.45 30.2914Z" fill="#FF7763"/>
<path d="M375.483 140.688C371.258 138.117 366.704 136.05 362.408 133.596C362.013 133.4 361.55 133.329 361.121 133.45L352.404 148.458C352.188 148.458 352.204 148.458 352.104 148.304C351.867 147.942 351.725 147.492 351.388 147.096C348.388 143.588 341.517 143.258 341.508 149.079C341.5 153.667 348.671 157.221 351.913 153.575C354.8 148.558 357.783 143.588 360.667 138.567C360.771 138.383 360.813 138.179 360.85 137.975C361.692 138.092 362.225 138.608 363.058 138.829L373.388 144.571L366.508 156.9C366.296 157.033 365.467 155.683 365.242 155.446C363.088 153.204 358.025 151.988 356.258 155.179C353.271 160.579 362.417 166.5 366.317 162.058L376.988 142.717C377.308 141.388 376.379 141.229 375.483 140.688Z" fill="#FF7763"/>
<path d="M68.5667 202.992C63.5792 206.783 59.0333 211.196 54.1458 215.117C53.7292 215.492 53.4292 216.004 53.375 216.567L67.0333 233.796C66.9333 234.054 66.9375 234.033 66.7125 234.079C66.175 234.192 65.5792 234.15 64.9583 234.367C59.4292 236.279 55.8583 244.225 62.7167 246.933C68.1208 249.067 75.6333 242.263 72.8375 236.75C68.2583 231.017 63.7833 225.2 59.2 219.475C59.0333 219.267 58.8125 219.121 58.5917 218.983C59.1167 218.046 59.975 217.658 60.6208 216.775L72.175 207.258L83.525 221.083C83.5833 221.396 81.6083 221.746 81.225 221.904C77.5833 223.404 73.8042 228.808 76.7458 232.371C81.725 238.4 92.9458 230.358 89.5167 223.704L71.6583 202.158C70.2375 201.163 69.6208 202.188 68.5667 202.992Z" fill="#FF7763"/>
</svg>
